<svg width="585" height="488" viewBox="0 0 585 488" fill="none" xmlns="http://www.w3.org/2000/svg">
<rect x="0.5" width="584" height="488" rx="19" fill="#F8F8F8"/>
<g filter="url(#filter0_d_653_549)">
<rect width="287" height="376" transform="translate(97 22)" fill="#F0F2F9"/>
<rect x="121" y="90" width="231" height="19" rx="4" fill="white"/>
<rect x="121" y="122" width="68" height="19" rx="3" fill="white"/>
<rect x="121" y="154" width="231" height="19" rx="4" fill="white"/>
<rect x="121" y="186" width="231" height="19" rx="4" fill="white"/>
<rect x="121" y="218" width="231" height="19" rx="4" fill="white"/>
<rect x="121" y="250" width="231" height="19" rx="4" fill="white"/>
<rect x="121" y="282" width="231" height="19" rx="4" fill="white"/>
<rect x="121" y="314" width="231" height="19" rx="4" fill="white"/>
<rect x="121" y="346" width="231" height="19" rx="4" fill="white"/>
<rect width="36" height="36" transform="translate(121 38)" fill="white"/>
<rect x="133" y="43" width="13" height="13" rx="6.5" fill="#323232"/>
<path d="M127 63C127 59.6863 129.686 57 133 57H144C147.314 57 150 59.6863 150 63V72H127V63Z" fill="#323232"/>
</g>
<g filter="url(#filter1_d_653_549)">
<rect x="282" y="163" width="204" height="292" rx="5" fill="#8D1E2E"/>
<rect width="152" height="16" transform="translate(308 184)" fill="#FFC367"/>
<rect width="152" height="16" transform="translate(308 184)" fill="#FFC367"/>
<rect width="131" height="10" transform="translate(318.5 202)" fill="#FFC367"/>
<rect width="131" height="10" transform="translate(318.5 202)" fill="#FFC367"/>
<path d="M331.5 236.5H436.5V342C436.5 347.247 432.247 351.5 427 351.5H340C335.306 351.5 331.5 347.694 331.5 343V236.5Z" stroke="#FFC367"/>
<path d="M355.722 379.091V390H353.442V380.966H349.032V390H346.752V379.091H355.722ZM359.798 390H357.327L361.093 379.091H364.065L367.826 390H365.354L362.621 381.584H362.536L359.798 390ZM359.644 385.712H365.482V387.512H359.644V385.712ZM378.251 382.91H375.918C375.876 382.608 375.789 382.34 375.657 382.106C375.526 381.868 375.357 381.665 375.151 381.499C374.945 381.332 374.707 381.204 374.437 381.115C374.171 381.026 373.882 380.982 373.569 380.982C373.004 380.982 372.513 381.122 372.094 381.403C371.675 381.68 371.35 382.085 371.119 382.617C370.888 383.146 370.773 383.789 370.773 384.545C370.773 385.323 370.888 385.977 371.119 386.506C371.353 387.035 371.68 387.434 372.099 387.704C372.518 387.974 373.003 388.109 373.553 388.109C373.862 388.109 374.148 388.068 374.411 387.987C374.677 387.905 374.913 387.786 375.119 387.63C375.325 387.47 375.496 387.276 375.631 387.049C375.769 386.822 375.865 386.562 375.918 386.271L378.251 386.282C378.191 386.783 378.04 387.266 377.798 387.731C377.561 388.192 377.239 388.606 376.834 388.972C376.433 389.334 375.954 389.622 375.396 389.835C374.842 390.044 374.215 390.149 373.516 390.149C372.543 390.149 371.673 389.929 370.906 389.489C370.142 389.048 369.539 388.411 369.095 387.576C368.654 386.742 368.434 385.732 368.434 384.545C368.434 383.356 368.658 382.344 369.105 381.509C369.553 380.675 370.16 380.039 370.927 379.602C371.694 379.162 372.557 378.942 373.516 378.942C374.148 378.942 374.734 379.031 375.274 379.208C375.817 379.386 376.298 379.645 376.717 379.986C377.136 380.323 377.477 380.737 377.74 381.227C378.006 381.717 378.177 382.278 378.251 382.91ZM389.179 379.091V390H386.899V380.966H382.489V390H380.209V379.091H389.179ZM401.4 384.545C401.4 385.735 401.174 386.747 400.723 387.582C400.276 388.416 399.665 389.054 398.891 389.494C398.12 389.931 397.254 390.149 396.291 390.149C395.322 390.149 394.452 389.929 393.681 389.489C392.911 389.048 392.302 388.411 391.854 387.576C391.407 386.742 391.183 385.732 391.183 384.545C391.183 383.356 391.407 382.344 391.854 381.509C392.302 380.675 392.911 380.039 393.681 379.602C394.452 379.162 395.322 378.942 396.291 378.942C397.254 378.942 398.12 379.162 398.891 379.602C399.665 380.039 400.276 380.675 400.723 381.509C401.174 382.344 401.4 383.356 401.4 384.545ZM399.061 384.545C399.061 383.775 398.946 383.125 398.715 382.596C398.488 382.067 398.166 381.665 397.751 381.392C397.335 381.119 396.849 380.982 396.291 380.982C395.734 380.982 395.247 381.119 394.832 381.392C394.416 381.665 394.093 382.067 393.862 382.596C393.635 383.125 393.522 383.775 393.522 384.545C393.522 385.316 393.635 385.966 393.862 386.495C394.093 387.024 394.416 387.425 394.832 387.699C395.247 387.972 395.734 388.109 396.291 388.109C396.849 388.109 397.335 387.972 397.751 387.699C398.166 387.425 398.488 387.024 398.715 386.495C398.946 385.966 399.061 385.316 399.061 384.545ZM403.108 390V379.091H407.412C408.24 379.091 408.945 379.249 409.527 379.565C410.109 379.877 410.553 380.312 410.859 380.87C411.168 381.424 411.322 382.063 411.322 382.788C411.322 383.512 411.166 384.151 410.853 384.705C410.541 385.259 410.088 385.691 409.495 386C408.906 386.309 408.192 386.463 407.354 386.463H404.61V384.615H406.981C407.425 384.615 407.79 384.538 408.078 384.386C408.369 384.229 408.586 384.015 408.728 383.741C408.874 383.464 408.946 383.146 408.946 382.788C408.946 382.425 408.874 382.109 408.728 381.839C408.586 381.566 408.369 381.355 408.078 381.206C407.787 381.053 407.418 380.977 406.97 380.977H405.415V390H403.108ZM412.405 380.993V379.091H421.364V380.993H418.024V390H415.745V380.993H412.405Z" fill="#FFC367"/>
<path d="M344.448 408V397.091H348.752C349.58 397.091 350.284 397.249 350.867 397.565C351.449 397.877 351.893 398.312 352.199 398.87C352.507 399.424 352.662 400.063 352.662 400.788C352.662 401.512 352.506 402.151 352.193 402.705C351.881 403.259 351.428 403.691 350.835 404C350.245 404.309 349.532 404.463 348.694 404.463H345.95V402.615H348.321C348.765 402.615 349.13 402.538 349.418 402.386C349.709 402.229 349.926 402.015 350.068 401.741C350.213 401.464 350.286 401.146 350.286 400.788C350.286 400.425 350.213 400.109 350.068 399.839C349.926 399.566 349.709 399.355 349.418 399.206C349.127 399.053 348.757 398.977 348.31 398.977H346.755V408H344.448ZM354.781 408H352.309L356.075 397.091H359.047L362.808 408H360.336L357.604 399.584H357.519L354.781 408ZM354.626 403.712H360.464V405.512H354.626V403.712ZM369.79 400.228C369.747 399.799 369.564 399.465 369.241 399.227C368.918 398.989 368.48 398.87 367.926 398.87C367.549 398.87 367.231 398.923 366.972 399.03C366.713 399.133 366.514 399.277 366.376 399.461C366.241 399.646 366.173 399.855 366.173 400.09C366.166 400.285 366.207 400.456 366.296 400.601C366.388 400.747 366.514 400.873 366.674 400.979C366.834 401.082 367.018 401.173 367.228 401.251C367.437 401.326 367.661 401.39 367.899 401.443L368.879 401.677C369.355 401.784 369.792 401.926 370.189 402.103C370.587 402.281 370.932 402.499 371.223 402.759C371.514 403.018 371.74 403.323 371.899 403.675C372.063 404.026 372.146 404.429 372.15 404.884C372.146 405.551 371.976 406.13 371.638 406.62C371.305 407.107 370.822 407.485 370.189 407.755C369.561 408.021 368.803 408.154 367.915 408.154C367.034 408.154 366.267 408.02 365.614 407.75C364.964 407.48 364.456 407.08 364.09 406.551C363.728 406.018 363.538 405.36 363.52 404.575H365.752C365.777 404.941 365.882 405.246 366.067 405.491C366.255 405.733 366.505 405.915 366.818 406.04C367.134 406.161 367.491 406.221 367.888 406.221C368.279 406.221 368.618 406.164 368.906 406.05C369.197 405.937 369.422 405.779 369.582 405.576C369.742 405.374 369.822 405.141 369.822 404.879C369.822 404.634 369.749 404.428 369.604 404.261C369.461 404.094 369.252 403.952 368.975 403.835C368.702 403.717 368.366 403.611 367.968 403.515L366.78 403.217C365.861 402.993 365.134 402.643 364.602 402.167C364.069 401.691 363.805 401.05 363.808 400.244C363.805 399.584 363.98 399.007 364.335 398.513C364.694 398.02 365.186 397.634 365.811 397.357C366.436 397.08 367.146 396.942 367.942 396.942C368.751 396.942 369.458 397.08 370.062 397.357C370.669 397.634 371.141 398.02 371.479 398.513C371.816 399.007 371.99 399.578 372.001 400.228H369.79ZM379.619 400.228C379.576 399.799 379.394 399.465 379.07 399.227C378.747 398.989 378.309 398.87 377.755 398.87C377.378 398.87 377.06 398.923 376.801 399.03C376.542 399.133 376.343 399.277 376.205 399.461C376.07 399.646 376.002 399.855 376.002 400.09C375.995 400.285 376.036 400.456 376.125 400.601C376.217 400.747 376.343 400.873 376.503 400.979C376.663 401.082 376.847 401.173 377.057 401.251C377.266 401.326 377.49 401.39 377.728 401.443L378.708 401.677C379.184 401.784 379.621 401.926 380.019 402.103C380.416 402.281 380.761 402.499 381.052 402.759C381.343 403.018 381.569 403.323 381.728 403.675C381.892 404.026 381.975 404.429 381.979 404.884C381.975 405.551 381.805 406.13 381.467 406.62C381.134 407.107 380.651 407.485 380.019 407.755C379.39 408.021 378.632 408.154 377.744 408.154C376.863 408.154 376.096 408.02 375.443 407.75C374.793 407.48 374.285 407.08 373.919 406.551C373.557 406.018 373.367 405.36 373.35 404.575H375.581C375.606 404.941 375.711 405.246 375.896 405.491C376.084 405.733 376.334 405.915 376.647 406.04C376.963 406.161 377.32 406.221 377.717 406.221C378.108 406.221 378.447 406.164 378.735 406.05C379.026 405.937 379.252 405.779 379.411 405.576C379.571 405.374 379.651 405.141 379.651 404.879C379.651 404.634 379.578 404.428 379.433 404.261C379.291 404.094 379.081 403.952 378.804 403.835C378.531 403.717 378.195 403.611 377.797 403.515L376.609 403.217C375.69 402.993 374.964 402.643 374.431 402.167C373.898 401.691 373.634 401.05 373.637 400.244C373.634 399.584 373.809 399.007 374.165 398.513C374.523 398.02 375.015 397.634 375.64 397.357C376.265 397.08 376.975 396.942 377.771 396.942C378.58 396.942 379.287 397.08 379.891 397.357C380.498 397.634 380.97 398.02 381.308 398.513C381.645 399.007 381.819 399.578 381.83 400.228H379.619ZM383.53 408V397.091H387.834C388.662 397.091 389.366 397.249 389.949 397.565C390.531 397.877 390.975 398.312 391.281 398.87C391.589 399.424 391.744 400.063 391.744 400.788C391.744 401.512 391.588 402.151 391.275 402.705C390.963 403.259 390.51 403.691 389.917 404C389.327 404.309 388.614 404.463 387.776 404.463H385.032V402.615H387.403C387.847 402.615 388.212 402.538 388.5 402.386C388.791 402.229 389.008 402.015 389.15 401.741C389.295 401.464 389.368 401.146 389.368 400.788C389.368 400.425 389.295 400.109 389.15 399.839C389.008 399.566 388.791 399.355 388.5 399.206C388.209 399.053 387.839 398.977 387.392 398.977H385.837V408H383.53ZM403.267 402.545C403.267 403.735 403.041 404.747 402.59 405.582C402.143 406.416 401.532 407.054 400.758 407.494C399.987 407.931 399.121 408.149 398.159 408.149C397.189 408.149 396.319 407.929 395.549 407.489C394.778 407.048 394.169 406.411 393.722 405.576C393.274 404.742 393.05 403.732 393.05 402.545C393.05 401.356 393.274 400.344 393.722 399.509C394.169 398.675 394.778 398.039 395.549 397.602C396.319 397.162 397.189 396.942 398.159 396.942C399.121 396.942 399.987 397.162 400.758 397.602C401.532 398.039 402.143 398.675 402.59 399.509C403.041 400.344 403.267 401.356 403.267 402.545ZM400.929 402.545C400.929 401.775 400.813 401.125 400.582 400.596C400.355 400.067 400.034 399.665 399.618 399.392C399.203 399.119 398.716 398.982 398.159 398.982C397.601 398.982 397.115 399.119 396.699 399.392C396.284 399.665 395.96 400.067 395.73 400.596C395.502 401.125 395.389 401.775 395.389 402.545C395.389 403.316 395.502 403.966 395.73 404.495C395.96 405.024 396.284 405.425 396.699 405.699C397.115 405.972 397.601 406.109 398.159 406.109C398.716 406.109 399.203 405.972 399.618 405.699C400.034 405.425 400.355 405.024 400.582 404.495C400.813 403.966 400.929 403.316 400.929 402.545ZM404.975 408V397.091H409.279C410.103 397.091 410.806 397.238 411.389 397.533C411.975 397.824 412.42 398.238 412.726 398.774C413.035 399.307 413.189 399.934 413.189 400.654C413.189 401.379 413.033 402.002 412.721 402.524C412.408 403.043 411.955 403.44 411.362 403.717C410.773 403.994 410.059 404.133 409.221 404.133H406.339V402.279H408.848C409.288 402.279 409.654 402.219 409.945 402.098C410.237 401.977 410.453 401.796 410.595 401.555C410.741 401.313 410.814 401.013 410.814 400.654C410.814 400.292 410.741 399.987 410.595 399.738C410.453 399.49 410.235 399.301 409.94 399.174C409.649 399.042 409.281 398.977 408.837 398.977H407.282V408H404.975ZM410.867 403.036L413.578 408H411.032L408.379 403.036H410.867ZM414.404 398.993V397.091H423.363V398.993H420.023V408H417.744V398.993H414.404Z" fill="#FFC367"/>
</g>
<defs>
<filter id="filter0_d_653_549" x="93" y="22" width="295" height="384" filterUnits="userSpaceOnUse" color-interpolation-filters="sRGB">
<feFlood flood-opacity="0" result="BackgroundImageFix"/>
<feColorMatrix in="SourceAlpha" type="matrix" values="0 0 0 0 0 0 0 0 0 0 0 0 0 0 0 0 0 0 127 0" result="hardAlpha"/>
<feOffset dy="4"/>
<feGaussianBlur stdDeviation="2"/>
<feComposite in2="hardAlpha" operator="out"/>
<feColorMatrix type="matrix" values="0 0 0 0 0 0 0 0 0 0 0 0 0 0 0 0 0 0 0.25 0"/>
<feBlend mode="normal" in2="BackgroundImageFix" result="effect1_dropShadow_653_549"/>
<feBlend mode="normal" in="SourceGraphic" in2="effect1_dropShadow_653_549" result="shape"/>
</filter>
<filter id="filter1_d_653_549" x="278" y="163" width="212" height="300" filterUnits="userSpaceOnUse" color-interpolation-filters="sRGB">
<feFlood flood-opacity="0" result="BackgroundImageFix"/>
<feColorMatrix in="SourceAlpha" type="matrix" values="0 0 0 0 0 0 0 0 0 0 0 0 0 0 0 0 0 0 127 0" result="hardAlpha"/>
<feOffset dy="4"/>
<feGaussianBlur stdDeviation="2"/>
<feComposite in2="hardAlpha" operator="out"/>
<feColorMatrix type="matrix" values="0 0 0 0 0 0 0 0 0 0 0 0 0 0 0 0 0 0 0.25 0"/>
<feBlend mode="normal" in2="BackgroundImageFix" result="effect1_dropShadow_653_549"/>
<feBlend mode="normal" in="SourceGraphic" in2="effect1_dropShadow_653_549" result="shape"/>
</filter>
</defs>
</svg>
