<svg width="664" height="556" viewBox="0 0 664 556" fill="none" xmlns="http://www.w3.org/2000/svg">
<rect width="664" height="556" rx="19" fill="#F8F8F8"/>
<g clip-path="url(#clip0_657_624)">
<g filter="url(#filter0_d_657_624)">
<rect width="287" height="376" transform="translate(286 36)" fill="#F0F2F9"/>
<rect x="310" y="104" width="231" height="19" rx="4" fill="white"/>
<rect x="310" y="136" width="68" height="19" rx="3" fill="white"/>
<rect x="310" y="168" width="231" height="19" rx="4" fill="white"/>
<rect x="310" y="200" width="231" height="19" rx="4" fill="white"/>
<rect x="310" y="232" width="231" height="19" rx="4" fill="white"/>
<rect x="310" y="264" width="231" height="19" rx="4" fill="white"/>
<rect x="310" y="296" width="231" height="19" rx="4" fill="white"/>
<rect x="310" y="328" width="231" height="19" rx="4" fill="white"/>
<rect x="310" y="360" width="231" height="19" rx="4" fill="white"/>
<rect width="36" height="36" transform="translate(310 52)" fill="white"/>
<rect x="322" y="57" width="13" height="13" rx="6.5" fill="#323232"/>
<path d="M316 77C316 73.6863 318.686 71 322 71H333C336.314 71 339 73.6863 339 77V86H316V77Z" fill="#323232"/>
</g>
<g filter="url(#filter1_d_657_624)">
<rect x="189" y="178" width="204" height="292" rx="5" fill="#8D1E2E"/>
<rect width="152" height="16" transform="translate(215 199)" fill="#FFC367"/>
<rect width="152" height="16" transform="translate(215 199)" fill="#FFC367"/>
<g clip-path="url(#clip1_657_624)">
<path d="M256 242.5H326V324.023L291 337.464L256 324.023V242.5Z" stroke="#FFC367"/>
</g>
<path d="M256.699 357V346.091H260.587C261.432 346.091 262.134 346.237 262.691 346.528C263.252 346.819 263.671 347.222 263.948 347.737C264.225 348.248 264.364 348.839 264.364 349.511C264.364 350.178 264.223 350.766 263.943 351.274C263.666 351.778 263.247 352.17 262.686 352.451C262.128 352.732 261.427 352.872 260.582 352.872H257.636V351.455H260.433C260.965 351.455 261.398 351.379 261.732 351.226C262.07 351.073 262.316 350.851 262.473 350.56C262.629 350.269 262.707 349.919 262.707 349.511C262.707 349.099 262.627 348.742 262.467 348.44C262.311 348.138 262.064 347.907 261.727 347.748C261.393 347.584 260.955 347.502 260.411 347.502H258.344V357H256.699ZM262.084 352.078L264.779 357H262.904L260.262 352.078H262.084ZM275.843 351.545C275.843 352.71 275.63 353.712 275.203 354.55C274.777 355.384 274.193 356.027 273.451 356.478C272.712 356.925 271.873 357.149 270.931 357.149C269.987 357.149 269.143 356.925 268.401 356.478C267.663 356.027 267.08 355.382 266.654 354.544C266.228 353.706 266.015 352.707 266.015 351.545C266.015 350.381 266.228 349.381 266.654 348.547C267.08 347.708 267.663 347.066 268.401 346.618C269.143 346.167 269.987 345.942 270.931 345.942C271.873 345.942 272.712 346.167 273.451 346.618C274.193 347.066 274.777 347.708 275.203 348.547C275.63 349.381 275.843 350.381 275.843 351.545ZM274.213 351.545C274.213 350.658 274.069 349.91 273.781 349.303C273.497 348.692 273.107 348.23 272.609 347.918C272.116 347.602 271.556 347.444 270.931 347.444C270.303 347.444 269.742 347.602 269.248 347.918C268.755 348.23 268.364 348.692 268.076 349.303C267.792 349.91 267.65 350.658 267.65 351.545C267.65 352.433 267.792 353.183 268.076 353.793C268.364 354.401 268.755 354.862 269.248 355.178C269.742 355.491 270.303 355.647 270.931 355.647C271.556 355.647 272.116 355.491 272.609 355.178C273.107 354.862 273.497 354.401 273.781 353.793C274.069 353.183 274.213 352.433 274.213 351.545ZM277.895 346.091H279.892L283.365 354.571H283.493L286.966 346.091H288.964V357H287.398V349.106H287.296L284.079 356.984H282.779L279.562 349.1H279.461V357H277.895V346.091ZM292.278 357H290.531L294.457 346.091H296.358L300.284 357H298.537L295.453 348.072H295.368L292.278 357ZM292.571 352.728H298.239V354.113H292.571V352.728ZM310.665 346.091V357H309.152L303.607 348.999H303.506V357H301.86V346.091H303.383L308.934 354.102H309.035V346.091H310.665ZM314.712 346.091V357H313.066V346.091H314.712ZM318.03 357H316.283L320.209 346.091H322.11L326.036 357H324.289L321.205 348.072H321.12L318.03 357ZM318.323 352.728H323.991V354.113H318.323V352.728Z" fill="#FFC367"/>
<path d="M228.222 411V393.545H234.767C236.108 393.545 237.233 393.795 238.142 394.295C239.057 394.795 239.747 395.483 240.213 396.358C240.685 397.227 240.92 398.216 240.92 399.324C240.92 400.443 240.685 401.437 240.213 402.307C239.741 403.176 239.045 403.861 238.125 404.361C237.205 404.855 236.071 405.102 234.724 405.102H230.386V402.503H234.298C235.082 402.503 235.724 402.366 236.224 402.094C236.724 401.821 237.094 401.446 237.332 400.969C237.577 400.491 237.699 399.943 237.699 399.324C237.699 398.705 237.577 398.159 237.332 397.688C237.094 397.216 236.722 396.849 236.216 396.588C235.716 396.321 235.071 396.188 234.281 396.188H231.384V411H228.222ZM243.963 411H240.588L246.733 393.545H250.636L256.79 411H253.415L248.753 397.125H248.616L243.963 411ZM244.074 404.156H253.278V406.696H244.074V404.156ZM268.293 398.344C268.214 397.599 267.879 397.02 267.288 396.605C266.702 396.19 265.941 395.983 265.004 395.983C264.344 395.983 263.779 396.082 263.308 396.281C262.836 396.48 262.475 396.75 262.225 397.091C261.975 397.432 261.847 397.821 261.842 398.259C261.842 398.622 261.924 398.937 262.089 399.205C262.259 399.472 262.489 399.699 262.779 399.886C263.069 400.068 263.39 400.222 263.742 400.347C264.094 400.472 264.45 400.577 264.808 400.662L266.444 401.071C267.103 401.224 267.737 401.432 268.344 401.693C268.958 401.955 269.506 402.284 269.989 402.682C270.478 403.08 270.864 403.56 271.148 404.122C271.433 404.685 271.575 405.344 271.575 406.099C271.575 407.122 271.313 408.023 270.79 408.801C270.268 409.574 269.512 410.179 268.523 410.616C267.54 411.048 266.35 411.264 264.952 411.264C263.594 411.264 262.415 411.054 261.415 410.634C260.421 410.213 259.643 409.599 259.08 408.793C258.523 407.986 258.222 407.003 258.177 405.844H261.288C261.333 406.452 261.521 406.957 261.85 407.361C262.18 407.764 262.609 408.065 263.137 408.264C263.671 408.463 264.268 408.562 264.927 408.562C265.614 408.562 266.217 408.46 266.734 408.256C267.256 408.045 267.665 407.756 267.961 407.386C268.256 407.011 268.407 406.574 268.413 406.074C268.407 405.619 268.273 405.244 268.012 404.949C267.751 404.648 267.384 404.398 266.913 404.199C266.447 403.994 265.901 403.812 265.276 403.653L263.29 403.142C261.853 402.773 260.717 402.213 259.881 401.463C259.052 400.707 258.637 399.705 258.637 398.455C258.637 397.426 258.915 396.526 259.472 395.753C260.035 394.98 260.799 394.381 261.765 393.955C262.731 393.523 263.825 393.307 265.046 393.307C266.285 393.307 267.37 393.523 268.302 393.955C269.239 394.381 269.975 394.974 270.509 395.736C271.043 396.491 271.319 397.361 271.336 398.344H268.293ZM262.447 416.847L263.469 412.568H266.401L264.671 416.847H262.447ZM276.354 411H272.979L279.124 393.545H283.027L289.18 411H285.805L281.143 397.125H281.007L276.354 411ZM276.464 404.156H285.669V406.696H276.464V404.156ZM291.479 411V393.545H298.025C299.366 393.545 300.491 393.795 301.4 394.295C302.315 394.795 303.005 395.483 303.471 396.358C303.942 397.227 304.178 398.216 304.178 399.324C304.178 400.443 303.942 401.437 303.471 402.307C302.999 403.176 302.303 403.861 301.383 404.361C300.462 404.855 299.329 405.102 297.982 405.102H293.644V402.503H297.556C298.34 402.503 298.982 402.366 299.482 402.094C299.982 401.821 300.352 401.446 300.59 400.969C300.835 400.491 300.957 399.943 300.957 399.324C300.957 398.705 300.835 398.159 300.59 397.688C300.352 397.216 299.979 396.849 299.474 396.588C298.974 396.321 298.329 396.188 297.539 396.188H294.641V411H291.479ZM322.521 402.273C322.521 404.153 322.169 405.764 321.464 407.105C320.766 408.44 319.811 409.463 318.601 410.173C317.396 410.884 316.03 411.239 314.501 411.239C312.973 411.239 311.604 410.884 310.393 410.173C309.189 409.457 308.234 408.432 307.53 407.097C306.831 405.756 306.482 404.148 306.482 402.273C306.482 400.392 306.831 398.784 307.53 397.449C308.234 396.108 309.189 395.082 310.393 394.372C311.604 393.662 312.973 393.307 314.501 393.307C316.03 393.307 317.396 393.662 318.601 394.372C319.811 395.082 320.766 396.108 321.464 397.449C322.169 398.784 322.521 400.392 322.521 402.273ZM319.342 402.273C319.342 400.949 319.135 399.832 318.72 398.923C318.311 398.009 317.743 397.318 317.016 396.852C316.288 396.381 315.45 396.145 314.501 396.145C313.553 396.145 312.714 396.381 311.987 396.852C311.26 397.318 310.689 398.009 310.274 398.923C309.865 399.832 309.661 400.949 309.661 402.273C309.661 403.597 309.865 404.716 310.274 405.631C310.689 406.54 311.26 407.23 311.987 407.702C312.714 408.168 313.553 408.401 314.501 408.401C315.45 408.401 316.288 408.168 317.016 407.702C317.743 407.23 318.311 406.54 318.72 405.631C319.135 404.716 319.342 403.597 319.342 402.273ZM325.511 411V393.545H332.056C333.397 393.545 334.522 393.778 335.431 394.244C336.346 394.71 337.036 395.364 337.502 396.205C337.974 397.04 338.21 398.014 338.21 399.128C338.21 400.247 337.971 401.219 337.494 402.043C337.022 402.861 336.326 403.494 335.406 403.943C334.485 404.386 333.354 404.608 332.013 404.608H327.352V401.983H331.587C332.371 401.983 333.013 401.875 333.513 401.659C334.013 401.437 334.383 401.116 334.621 400.696C334.866 400.27 334.988 399.747 334.988 399.128C334.988 398.509 334.866 397.98 334.621 397.543C334.377 397.099 334.005 396.764 333.505 396.537C333.005 396.304 332.36 396.188 331.57 396.188H328.673V411H325.511ZM334.528 403.091L338.849 411H335.32L331.076 403.091H334.528ZM340.353 396.196V393.545H354.279V396.196H348.884V411H345.748V396.196H340.353Z" fill="#FFC367"/>
</g>
</g>
<defs>
<filter id="filter0_d_657_624" x="282" y="36" width="295" height="384" filterUnits="userSpaceOnUse" color-interpolation-filters="sRGB">
<feFlood flood-opacity="0" result="BackgroundImageFix"/>
<feColorMatrix in="SourceAlpha" type="matrix" values="0 0 0 0 0 0 0 0 0 0 0 0 0 0 0 0 0 0 127 0" result="hardAlpha"/>
<feOffset dy="4"/>
<feGaussianBlur stdDeviation="2"/>
<feComposite in2="hardAlpha" operator="out"/>
<feColorMatrix type="matrix" values="0 0 0 0 0 0 0 0 0 0 0 0 0 0 0 0 0 0 0.25 0"/>
<feBlend mode="normal" in2="BackgroundImageFix" result="effect1_dropShadow_657_624"/>
<feBlend mode="normal" in="SourceGraphic" in2="effect1_dropShadow_657_624" result="shape"/>
</filter>
<filter id="filter1_d_657_624" x="185" y="178" width="212" height="300" filterUnits="userSpaceOnUse" color-interpolation-filters="sRGB">
<feFlood flood-opacity="0" result="BackgroundImageFix"/>
<feColorMatrix in="SourceAlpha" type="matrix" values="0 0 0 0 0 0 0 0 0 0 0 0 0 0 0 0 0 0 127 0" result="hardAlpha"/>
<feOffset dy="4"/>
<feGaussianBlur stdDeviation="2"/>
<feComposite in2="hardAlpha" operator="out"/>
<feColorMatrix type="matrix" values="0 0 0 0 0 0 0 0 0 0 0 0 0 0 0 0 0 0 0.25 0"/>
<feBlend mode="normal" in2="BackgroundImageFix" result="effect1_dropShadow_657_624"/>
<feBlend mode="normal" in="SourceGraphic" in2="effect1_dropShadow_657_624" result="shape"/>
</filter>
<clipPath id="clip0_657_624">
<rect width="481" height="492" fill="white" transform="translate(91.5 32)"/>
</clipPath>
<clipPath id="clip1_657_624">
<path d="M255.5 242H326.5V333C326.5 338.523 322.023 343 316.5 343H264.5C259.529 343 255.5 338.971 255.5 334V242Z" fill="white"/>
</clipPath>
</defs>
</svg>
