<svg width="144" height="75" viewBox="0 0 144 75" fill="none" xmlns="http://www.w3.org/2000/svg">
<path d="M52.142 8.19602V5.54545H66.0682V8.19602H60.6733V23H57.5369V8.19602H52.142ZM67.2571 23V9.90909H70.2486V12.0909H70.3849C70.6236 11.3352 71.0327 10.7528 71.6122 10.3438C72.1974 9.92898 72.8651 9.72159 73.6151 9.72159C73.7855 9.72159 73.9759 9.73011 74.1861 9.74716C74.402 9.75852 74.581 9.77841 74.723 9.80682V12.6449C74.5923 12.5994 74.3849 12.5597 74.1009 12.5256C73.8224 12.4858 73.5526 12.4659 73.2912 12.4659C72.7287 12.4659 72.223 12.5881 71.7741 12.8324C71.331 13.071 70.9815 13.4034 70.7259 13.8295C70.4702 14.2557 70.3423 14.7472 70.3423 15.304V23H67.2571ZM80.3054 23.2642C79.4759 23.2642 78.7287 23.1165 78.0639 22.821C77.4048 22.5199 76.8821 22.0767 76.4957 21.4915C76.1151 20.9062 75.9247 20.1847 75.9247 19.3267C75.9247 18.5881 76.0611 17.9773 76.3338 17.4943C76.6065 17.0114 76.9787 16.625 77.4503 16.3352C77.9219 16.0455 78.4531 15.8267 79.044 15.679C79.6406 15.5256 80.2571 15.4148 80.8935 15.3466C81.6605 15.267 82.2827 15.196 82.7599 15.1335C83.2372 15.0653 83.5838 14.9631 83.7997 14.8267C84.0213 14.6847 84.1321 14.4659 84.1321 14.1705V14.1193C84.1321 13.4773 83.9418 12.9801 83.5611 12.6278C83.1804 12.2756 82.6321 12.0994 81.9162 12.0994C81.1605 12.0994 80.5611 12.2642 80.1179 12.5938C79.6804 12.9233 79.3849 13.3125 79.2315 13.7614L76.3509 13.3523C76.5781 12.5568 76.9531 11.892 77.4759 11.358C77.9986 10.8182 78.6378 10.4148 79.3935 10.1477C80.1491 9.875 80.9844 9.73864 81.8991 9.73864C82.5298 9.73864 83.1577 9.8125 83.7827 9.96023C84.4077 10.108 84.9787 10.3523 85.4957 10.6932C86.0128 11.0284 86.4276 11.4858 86.7401 12.0653C87.0582 12.6449 87.2173 13.3693 87.2173 14.2386V23H84.2514V21.2017H84.1491C83.9616 21.5653 83.6974 21.9062 83.3565 22.2244C83.0213 22.5369 82.598 22.7898 82.0866 22.983C81.581 23.1705 80.9872 23.2642 80.3054 23.2642ZM81.1065 20.9972C81.7259 20.9972 82.2628 20.875 82.7173 20.6307C83.1719 20.3807 83.5213 20.0511 83.7656 19.642C84.0156 19.233 84.1406 18.7869 84.1406 18.304V16.7614C84.044 16.8409 83.8793 16.9148 83.6463 16.983C83.419 17.0511 83.1634 17.1108 82.8793 17.1619C82.5952 17.2131 82.3139 17.2585 82.0355 17.2983C81.7571 17.3381 81.5156 17.3722 81.3111 17.4006C80.8509 17.4631 80.4389 17.5653 80.0753 17.7074C79.7116 17.8494 79.4247 18.0483 79.2145 18.304C79.0043 18.554 78.8991 18.8778 78.8991 19.2756C78.8991 19.8438 79.1065 20.2727 79.5213 20.5625C79.9361 20.8523 80.4645 20.9972 81.1065 20.9972ZM101.544 9.90909L96.8821 23H93.473L88.8111 9.90909H92.1009L95.1094 19.6335H95.2457L98.2628 9.90909H101.544ZM109.029 23.2557C107.717 23.2557 106.583 22.983 105.629 22.4375C104.68 21.8864 103.95 21.108 103.438 20.1023C102.927 19.0909 102.671 17.9006 102.671 16.5312C102.671 15.1847 102.927 14.0028 103.438 12.9858C103.955 11.9631 104.677 11.1676 105.603 10.5994C106.529 10.0256 107.617 9.73864 108.867 9.73864C109.674 9.73864 110.435 9.86932 111.151 10.1307C111.873 10.3864 112.509 10.7841 113.06 11.3239C113.617 11.8636 114.055 12.5511 114.373 13.3864C114.691 14.2159 114.85 15.2045 114.85 16.3523V17.2983H104.12V15.2188H111.893C111.887 14.6278 111.759 14.1023 111.509 13.642C111.259 13.1761 110.91 12.8097 110.461 12.5426C110.018 12.2756 109.501 12.142 108.91 12.142C108.279 12.142 107.725 12.2955 107.248 12.6023C106.771 12.9034 106.398 13.3011 106.131 13.7955C105.87 14.2841 105.737 14.821 105.731 15.4062V17.2216C105.731 17.983 105.87 18.6364 106.148 19.1818C106.427 19.7216 106.816 20.1364 107.316 20.4261C107.816 20.7102 108.401 20.8523 109.072 20.8523C109.521 20.8523 109.927 20.7898 110.29 20.6648C110.654 20.5341 110.969 20.3438 111.237 20.0938C111.504 19.8438 111.705 19.5341 111.842 19.1648L114.722 19.4886C114.54 20.25 114.194 20.9148 113.683 21.483C113.177 22.0455 112.529 22.483 111.739 22.7955C110.95 23.1023 110.046 23.2557 109.029 23.2557ZM120.545 5.54545V23H117.46V5.54545H120.545ZM134.887 23.2557C133.694 23.2557 132.668 23.0398 131.81 22.608C130.952 22.1761 130.29 21.5938 129.825 20.8608C129.364 20.1222 129.134 19.2898 129.134 18.3636C129.134 17.6648 129.276 17.0455 129.56 16.5057C129.85 15.9659 130.248 15.4659 130.754 15.0057C131.265 14.5455 131.856 14.0881 132.526 13.6335L135.62 11.5284C136.075 11.233 136.418 10.9205 136.651 10.5909C136.89 10.2614 137.009 9.875 137.009 9.43182C137.009 9.05682 136.85 8.7017 136.532 8.36648C136.219 8.03125 135.788 7.86364 135.237 7.86364C134.867 7.86364 134.54 7.9517 134.256 8.12784C133.978 8.2983 133.759 8.52273 133.6 8.80114C133.447 9.07955 133.37 9.375 133.37 9.6875C133.37 10.0682 133.475 10.4545 133.685 10.8466C133.901 11.2386 134.18 11.6449 134.521 12.0653C134.867 12.4858 135.237 12.9318 135.629 13.4034L143.819 23H140.478L133.677 15.2102C133.171 14.6193 132.683 14.0369 132.211 13.4631C131.745 12.8892 131.362 12.2926 131.06 11.6733C130.765 11.0483 130.617 10.3722 130.617 9.64489C130.617 8.82102 130.808 8.08523 131.188 7.4375C131.569 6.78409 132.1 6.26989 132.782 5.89489C133.469 5.51989 134.273 5.33239 135.194 5.33239C136.114 5.33239 136.904 5.5142 137.563 5.87784C138.222 6.24148 138.731 6.72443 139.089 7.3267C139.447 7.92898 139.626 8.58523 139.626 9.29545C139.626 10.1193 139.421 10.858 139.012 11.5114C138.603 12.1591 138.035 12.7472 137.308 13.2756L133.779 15.858C133.2 16.2784 132.785 16.7045 132.535 17.1364C132.285 17.5625 132.16 17.9261 132.16 18.2273C132.16 18.6875 132.276 19.1051 132.509 19.4801C132.742 19.8551 133.069 20.1562 133.489 20.3835C133.915 20.6051 134.413 20.7159 134.981 20.7159C135.606 20.7159 136.222 20.5767 136.83 20.2983C137.438 20.0142 137.992 19.6108 138.492 19.0881C138.992 18.5653 139.39 17.9403 139.685 17.2131C139.981 16.4801 140.129 15.6676 140.129 14.7756H142.779C142.779 15.8778 142.657 16.8381 142.413 17.6562C142.168 18.4688 141.853 19.1562 141.467 19.7188C141.08 20.2756 140.671 20.7216 140.239 21.0568C140.103 21.1534 139.972 21.25 139.847 21.3466C139.722 21.4432 139.592 21.5398 139.455 21.6364C138.842 22.1932 138.123 22.6023 137.299 22.8636C136.481 23.125 135.677 23.2557 134.887 23.2557ZM86.9574 39.3438C86.8778 38.5994 86.5426 38.0199 85.9517 37.6051C85.3665 37.1903 84.6051 36.983 83.6676 36.983C83.0085 36.983 82.4432 37.0824 81.9716 37.2812C81.5 37.4801 81.1392 37.75 80.8892 38.0909C80.6392 38.4318 80.5114 38.821 80.5057 39.2585C80.5057 39.6222 80.5881 39.9375 80.7528 40.2045C80.9233 40.4716 81.1534 40.6989 81.4432 40.8864C81.733 41.0682 82.054 41.2216 82.4062 41.3466C82.7585 41.4716 83.1136 41.5767 83.4716 41.6619L85.108 42.071C85.767 42.2244 86.4006 42.4318 87.0085 42.6932C87.6222 42.9545 88.1705 43.2841 88.6534 43.6818C89.142 44.0795 89.5284 44.5597 89.8125 45.1222C90.0966 45.6847 90.2386 46.3437 90.2386 47.0994C90.2386 48.1222 89.9773 49.0227 89.4545 49.8011C88.9318 50.5739 88.1761 51.179 87.1875 51.6165C86.2045 52.0483 85.0142 52.2642 83.6165 52.2642C82.2585 52.2642 81.0795 52.054 80.0795 51.6335C79.0852 51.2131 78.3068 50.5994 77.7443 49.7926C77.1875 48.9858 76.8864 48.0028 76.8409 46.8438H79.9517C79.9972 47.4517 80.1847 47.9574 80.5142 48.3608C80.8438 48.7642 81.2727 49.0653 81.8011 49.2642C82.3352 49.4631 82.9318 49.5625 83.5909 49.5625C84.2784 49.5625 84.8807 49.4602 85.3977 49.2557C85.9205 49.0455 86.3295 48.7557 86.625 48.3864C86.9205 48.0114 87.071 47.5739 87.0767 47.0739C87.071 46.6193 86.9375 46.2443 86.6761 45.9489C86.4148 45.6477 86.0483 45.3977 85.5767 45.1989C85.1108 44.9943 84.5653 44.8125 83.9403 44.6534L81.9545 44.142C80.517 43.7727 79.3807 43.2131 78.5455 42.4631C77.7159 41.7074 77.3011 40.7045 77.3011 39.4545C77.3011 38.4261 77.5795 37.5256 78.1364 36.7528C78.6989 35.9801 79.4631 35.3807 80.429 34.9545C81.3949 34.5227 82.4886 34.3068 83.7102 34.3068C84.9489 34.3068 86.0341 34.5227 86.9659 34.9545C87.9034 35.3807 88.6392 35.9744 89.1733 36.7358C89.7074 37.4915 89.983 38.3608 90 39.3438H86.9574ZM99.4581 38.9091V41.2955H91.9325V38.9091H99.4581ZM93.7905 35.7727H96.8757V48.0625C96.8757 48.4773 96.9382 48.7955 97.0632 49.017C97.1939 49.233 97.3643 49.3807 97.5746 49.4602C97.7848 49.5398 98.0178 49.5795 98.2734 49.5795C98.4666 49.5795 98.6428 49.5653 98.8018 49.5369C98.9666 49.5085 99.0916 49.483 99.1768 49.4602L99.6967 51.8722C99.532 51.929 99.2962 51.9915 98.9893 52.0597C98.6882 52.1278 98.3189 52.1676 97.8814 52.179C97.1087 52.2017 96.4126 52.0852 95.7933 51.8295C95.174 51.5682 94.6825 51.1648 94.3189 50.6193C93.9609 50.0739 93.7848 49.392 93.7905 48.5739V35.7727ZM110.382 46.4943V38.9091H113.467V52H110.476V49.6733H110.339C110.044 50.4062 109.558 51.0057 108.882 51.4716C108.212 51.9375 107.385 52.1705 106.402 52.1705C105.544 52.1705 104.786 51.9801 104.126 51.5994C103.473 51.2131 102.962 50.6534 102.592 49.9205C102.223 49.1818 102.038 48.2898 102.038 47.2443V38.9091H105.124V46.767C105.124 47.5966 105.351 48.2557 105.805 48.7443C106.26 49.233 106.857 49.4773 107.595 49.4773C108.05 49.4773 108.49 49.3665 108.916 49.1449C109.342 48.9233 109.692 48.5938 109.964 48.1562C110.243 47.7131 110.382 47.1591 110.382 46.4943ZM121.498 52.2301C120.469 52.2301 119.549 51.9659 118.737 51.4375C117.924 50.9091 117.282 50.142 116.81 49.1364C116.339 48.1307 116.103 46.9091 116.103 45.4716C116.103 44.017 116.342 42.7898 116.819 41.7898C117.302 40.7841 117.952 40.0256 118.771 39.5142C119.589 38.9972 120.501 38.7386 121.506 38.7386C122.273 38.7386 122.904 38.8693 123.398 39.1307C123.893 39.3864 124.285 39.696 124.575 40.0597C124.864 40.4176 125.089 40.7557 125.248 41.0739H125.376V34.5455H128.469V52H125.435V49.9375H125.248C125.089 50.2557 124.859 50.5937 124.558 50.9517C124.256 51.304 123.859 51.6051 123.364 51.8551C122.87 52.1051 122.248 52.2301 121.498 52.2301ZM122.359 49.6989C123.012 49.6989 123.569 49.5227 124.029 49.1705C124.489 48.8125 124.839 48.3153 125.077 47.679C125.316 47.0426 125.435 46.3011 125.435 45.4545C125.435 44.608 125.316 43.8722 125.077 43.2472C124.844 42.6222 124.498 42.1364 124.038 41.7898C123.583 41.4432 123.023 41.2699 122.359 41.2699C121.671 41.2699 121.097 41.4489 120.637 41.8068C120.177 42.1648 119.83 42.6591 119.597 43.2898C119.364 43.9205 119.248 44.642 119.248 45.4545C119.248 46.2727 119.364 47.0028 119.597 47.6449C119.836 48.2812 120.185 48.7841 120.646 49.1534C121.112 49.517 121.683 49.6989 122.359 49.6989ZM133.675 56.9091C133.254 56.9091 132.865 56.875 132.507 56.8068C132.155 56.7443 131.874 56.6705 131.663 56.5852L132.379 54.1818C132.828 54.3125 133.229 54.375 133.581 54.3693C133.933 54.3636 134.243 54.2528 134.51 54.0369C134.783 53.8267 135.013 53.4744 135.2 52.9801L135.464 52.2727L130.717 38.9091H133.99L137.007 48.7955H137.143L140.169 38.9091H143.45L138.209 53.5852C137.964 54.2784 137.641 54.8722 137.237 55.3665C136.834 55.8665 136.339 56.2472 135.754 56.5085C135.175 56.7756 134.482 56.9091 133.675 56.9091Z" fill="black"/>
<path d="M42.7038 72V61.8182H46.1392C46.8021 61.8182 47.3539 61.9342 47.7947 62.1662C48.2389 62.3982 48.572 62.7147 48.794 63.1158C49.0161 63.5168 49.1271 63.9725 49.1271 64.483C49.1271 64.9072 49.0559 65.2701 48.9134 65.5717C48.7708 65.8733 48.5769 66.117 48.3317 66.3026C48.0864 66.4882 47.813 66.6224 47.5114 66.7053V66.7848C47.8395 66.808 48.1577 66.924 48.4659 67.1328C48.7741 67.3383 49.0277 67.6267 49.2266 67.9979C49.4254 68.3691 49.5249 68.8132 49.5249 69.3303C49.5249 69.844 49.4105 70.303 49.1818 70.7074C48.9531 71.1084 48.6018 71.425 48.1278 71.657C47.6572 71.8857 47.0573 72 46.3281 72H42.7038ZM43.6335 71.1648H46.3281C47.1136 71.1648 47.6937 70.9908 48.0682 70.6428C48.446 70.2947 48.6349 69.8572 48.6349 69.3303C48.6349 68.9425 48.5405 68.5911 48.3516 68.2763C48.166 67.9581 47.9025 67.7062 47.5611 67.5206C47.223 67.335 46.8253 67.2422 46.3679 67.2422H43.6335V71.1648ZM43.6335 66.4169H46.2237C46.6248 66.4169 46.9761 66.334 47.2777 66.1683C47.5793 66.0026 47.8146 65.7739 47.9837 65.4822C48.1527 65.1906 48.2372 64.8575 48.2372 64.483C48.2372 63.9427 48.0616 63.5036 47.7102 63.1655C47.3589 62.8241 46.8352 62.6534 46.1392 62.6534H43.6335V66.4169ZM52.4693 70.7422L56.5012 64.3636H57.5602V72H56.6752V65.6214L52.6582 72H51.5843V64.3636H52.4693V70.7422ZM59.4047 70.0511H60.3443C60.3708 70.4588 60.5465 70.777 60.8713 71.0057C61.1961 71.2344 61.6236 71.3487 62.1539 71.3487C62.7041 71.3487 63.1582 71.2261 63.5162 70.9808C63.8741 70.7322 64.0531 70.371 64.0531 69.897C64.0531 69.6087 63.9851 69.3584 63.8493 69.1463C63.7167 68.9342 63.5344 68.7685 63.3024 68.6491C63.0737 68.5265 62.8135 68.4635 62.5218 68.4602H61.1895V67.6499H62.5069C62.961 67.6233 63.3057 67.5007 63.541 67.282C63.7763 67.0599 63.894 66.7699 63.894 66.4119C63.894 66.0043 63.7498 65.6778 63.4615 65.4325C63.1731 65.1839 62.782 65.0597 62.2882 65.0597C61.7877 65.0597 61.3717 65.1823 61.0403 65.4276C60.7089 65.6728 60.5332 65.9877 60.5133 66.3722H59.5836C59.6002 65.9579 59.7245 65.5933 59.9565 65.2784C60.1885 64.9602 60.5017 64.7116 60.8961 64.5327C61.2939 64.3537 61.7446 64.2642 62.2484 64.2642C62.7654 64.2642 63.2145 64.357 63.5957 64.5426C63.9769 64.7282 64.2718 64.9818 64.4806 65.3033C64.6895 65.6214 64.7939 65.9827 64.7939 66.3871C64.7939 66.808 64.6779 67.1544 64.4458 67.4261C64.2172 67.6946 63.9238 67.8835 63.5659 67.9929V68.0675C63.8377 68.0973 64.0763 68.1967 64.2818 68.3658C64.4906 68.5348 64.6547 68.7519 64.774 69.017C64.8933 69.2822 64.9529 69.5755 64.9529 69.897C64.9529 70.3478 64.8353 70.7438 64.6 71.0852C64.3646 71.4233 64.0365 71.6868 63.6156 71.8757C63.198 72.0646 62.7157 72.1591 62.1689 72.1591C61.6419 72.1591 61.1729 72.0713 60.7619 71.8956C60.3509 71.7166 60.0244 71.4697 59.7825 71.1548C59.5439 70.8366 59.4179 70.4688 59.4047 70.0511ZM69.7418 72.1591C69.0823 72.1591 68.4989 71.9917 67.9918 71.657C67.488 71.3222 67.0936 70.8598 66.8086 70.2699C66.5236 69.6766 66.381 68.9922 66.381 68.2166C66.381 67.4344 66.5236 66.7467 66.8086 66.1534C67.0936 65.5568 67.488 65.0928 67.9918 64.7614C68.4989 64.4266 69.0823 64.2592 69.7418 64.2592C70.4014 64.2592 70.9831 64.4266 71.4869 64.7614C71.9906 65.0961 72.3851 65.5601 72.6701 66.1534C72.9585 66.7467 73.1026 67.4344 73.1026 68.2166C73.1026 68.9922 72.9601 69.6766 72.6751 70.2699C72.39 70.8598 71.994 71.3222 71.4869 71.657C70.9831 71.9917 70.4014 72.1591 69.7418 72.1591ZM69.7418 71.3487C70.2721 71.3487 70.7212 71.2062 71.0891 70.9212C71.457 70.6361 71.7354 70.2566 71.9244 69.7827C72.1166 69.3087 72.2127 68.7867 72.2127 68.2166C72.2127 67.6465 72.1166 67.1229 71.9244 66.6456C71.7354 66.1683 71.457 65.7855 71.0891 65.4972C70.7212 65.2088 70.2721 65.0646 69.7418 65.0646C69.2148 65.0646 68.7657 65.2088 68.3945 65.4972C68.0266 65.7855 67.7466 66.1683 67.5543 66.6456C67.3654 67.1229 67.271 67.6465 67.271 68.2166C67.271 68.7867 67.3654 69.3087 67.5543 69.7827C67.7466 70.2566 68.0266 70.6361 68.3945 70.9212C68.7624 71.2062 69.2115 71.3487 69.7418 71.3487ZM75.0453 72V64.3636H78.0531C78.8651 64.3636 79.5048 64.5393 79.9721 64.8906C80.4428 65.242 80.6781 65.7159 80.6781 66.3125C80.6781 66.7666 80.5472 67.1295 80.2853 67.4013C80.0235 67.6731 79.6722 67.8653 79.2314 67.978C79.5263 68.0277 79.7998 68.1354 80.0517 68.3011C80.3069 68.4669 80.514 68.6856 80.6731 68.9574C80.8322 69.2292 80.9118 69.554 80.9118 69.9318C80.9118 70.3295 80.8123 70.6842 80.6135 70.9957C80.4146 71.3073 80.1345 71.5526 79.7733 71.7315C79.412 71.9105 78.9844 72 78.4906 72H75.0453ZM75.8904 71.1797H78.4906C78.9579 71.1797 79.3275 71.0604 79.5993 70.8217C79.871 70.5798 80.0069 70.2583 80.0069 69.8572C80.0069 69.4297 79.8777 69.0883 79.6191 68.8331C79.3639 68.5746 79.0209 68.4453 78.59 68.4453H75.8904V71.1797ZM75.8904 67.6598H78.1078C78.4525 67.6598 78.7508 67.6068 79.0027 67.5007C79.2546 67.3946 79.4484 67.2455 79.5843 67.0533C79.7235 66.8577 79.7915 66.629 79.7882 66.3672C79.7882 65.9927 79.6357 65.7027 79.3308 65.4972C79.0259 65.2884 78.6 65.1839 78.0531 65.1839H75.8904V67.6598ZM83.5977 67.3118H85.8349C86.6933 67.3118 87.3562 67.5206 87.8235 67.9382C88.2908 68.3558 88.5245 68.9209 88.5245 69.6335C88.5245 70.1075 88.4184 70.5218 88.2063 70.8764C87.9975 71.2311 87.6926 71.5078 87.2915 71.7067C86.8905 71.9022 86.4049 72 85.8349 72H82.8619V64.3636H83.7518V71.1648H85.8349C86.3751 71.1648 86.8093 71.0355 87.1374 70.777C87.4689 70.5185 87.6346 70.1506 87.6346 69.6733C87.6346 69.1861 87.4689 68.8099 87.1374 68.5447C86.8093 68.2796 86.3751 68.147 85.8349 68.147H83.5977V67.3118ZM89.8121 72V64.3636H90.6971V72H89.8121ZM93.9361 70.7422L97.968 64.3636H99.027V72H98.142V65.6214L94.125 72H93.0511V64.3636H93.9361V70.7422ZM96.9538 61.8182H97.7891C97.7891 62.2921 97.6316 62.6766 97.3168 62.9716C97.0052 63.2666 96.5793 63.4141 96.0391 63.4141C95.5054 63.4141 95.0829 63.2666 94.7713 62.9716C94.4598 62.6766 94.304 62.2921 94.304 61.8182H95.1392C95.1392 62.0767 95.2088 62.2955 95.348 62.4744C95.4905 62.6501 95.7209 62.7379 96.0391 62.7379C96.3572 62.7379 96.5893 62.6501 96.7351 62.4744C96.8809 62.2955 96.9538 62.0767 96.9538 61.8182ZM111.093 64.3636V71.1598H111.903V74.4709H111.018V72H105.311V64.3636H106.201V71.1648H110.203V64.3636H111.093ZM116.797 72.1591C116.084 72.1591 115.468 71.9934 114.947 71.6619C114.427 71.3272 114.024 70.8648 113.739 70.2749C113.457 69.6816 113.317 68.9988 113.317 68.2266C113.317 67.4576 113.457 66.7749 113.739 66.1783C114.024 65.5784 114.417 65.1094 114.917 64.7713C115.421 64.4299 116.003 64.2592 116.662 64.2592C117.077 64.2592 117.476 64.3355 117.861 64.4879C118.245 64.6371 118.59 64.8674 118.895 65.179C119.203 65.4872 119.447 65.8767 119.626 66.3473C119.805 66.8146 119.894 67.3681 119.894 68.0078V68.4453H113.928V67.6648H118.989C118.989 67.1742 118.89 66.7334 118.691 66.3423C118.495 65.9479 118.222 65.6364 117.871 65.4077C117.523 65.179 117.12 65.0646 116.662 65.0646C116.179 65.0646 115.753 65.1939 115.385 65.4524C115.017 65.7109 114.729 66.0523 114.52 66.4766C114.314 66.9008 114.21 67.3648 114.206 67.8686V68.3359C114.206 68.9425 114.311 69.4728 114.52 69.9268C114.732 70.3776 115.032 70.7273 115.42 70.9759C115.807 71.2244 116.266 71.3487 116.797 71.3487C117.158 71.3487 117.474 71.2924 117.746 71.1797C118.021 71.067 118.252 70.9162 118.437 70.7273C118.626 70.535 118.769 70.3246 118.865 70.0959L119.705 70.3693C119.589 70.6908 119.398 70.9875 119.133 71.2592C118.872 71.531 118.543 71.7498 118.149 71.9155C117.758 72.0779 117.307 72.1591 116.797 72.1591ZM127 67.7692V68.6044H122.51V67.7692H127ZM122.729 64.3636V72H121.844V64.3636H122.729ZM127.651 64.3636V72H126.766V64.3636H127.651ZM128.937 65.1989V64.3636H134.903V65.1989H132.378V72H131.493V65.1989H128.937ZM136.774 74.8636V64.3636H137.634V65.8203H137.738C137.844 65.5916 137.99 65.358 138.176 65.1193C138.361 64.8774 138.607 64.6735 138.912 64.5078C139.22 64.3421 139.608 64.2592 140.075 64.2592C140.705 64.2592 141.255 64.425 141.725 64.7564C142.199 65.0845 142.567 65.5452 142.829 66.1385C143.094 66.7285 143.227 67.4162 143.227 68.2017C143.227 68.9905 143.094 69.6816 142.829 70.2749C142.567 70.8681 142.199 71.3305 141.725 71.6619C141.255 71.9934 140.708 72.1591 140.085 72.1591C139.624 72.1591 139.238 72.0762 138.926 71.9105C138.618 71.7448 138.368 71.541 138.176 71.299C137.987 71.0537 137.841 70.8151 137.738 70.5831H137.659V74.8636H136.774ZM137.649 68.1868C137.649 68.8033 137.74 69.3501 137.922 69.8274C138.108 70.3014 138.373 70.6742 138.718 70.946C139.066 71.2145 139.487 71.3487 139.98 71.3487C140.488 71.3487 140.915 71.2095 141.263 70.9311C141.614 70.6494 141.881 70.2699 142.064 69.7926C142.249 69.3153 142.342 68.7801 142.342 68.1868C142.342 67.6001 142.251 67.0715 142.069 66.6009C141.89 66.1302 141.624 65.7573 141.273 65.4822C140.922 65.2038 140.491 65.0646 139.98 65.0646C139.483 65.0646 139.061 65.1989 138.713 65.4673C138.365 65.7325 138.1 66.1004 137.917 66.571C137.738 67.0384 137.649 67.5769 137.649 68.1868Z" fill="black"/>
<path d="M74 34.2518C74 47.9198 60.2813 59 43.3585 59C26.4357 59 18 32.9775 18 19.3094C18 5.64137 26.4357 9.50354 43.3585 9.50354C60.2813 9.50354 31.7358 46.8594 74 34.2518Z" fill="#C534C8"/>
<path d="M73 31.1813C73 41.0223 63.2009 49 51.1132 49C39.0255 49 33 30.2638 33 20.4228C33 10.5818 39.0255 13.3626 51.1132 13.3626C63.2009 13.3626 42.8113 40.2587 73 31.1813Z" fill="#2076F5"/>
</svg>
